<svg width="353" height="258" viewBox="0 0 353 258" fill="none" xmlns="http://www.w3.org/2000/svg">
<path d="M1 182L21.8061 172.518C23.9575 171.538 26.3866 171.351 28.6624 171.992L59.4394 180.655C62.4501 181.502 65.6838 180.892 68.1789 179.006L94.4377 159.157C97.4111 156.91 101.388 156.502 104.755 158.1L107.477 159.392C110.278 160.721 113.538 160.676 116.302 159.268L121.563 156.589C122.968 155.873 124.523 155.5 126.101 155.5H134.053C135.376 155.5 136.686 155.762 137.907 156.272L146.36 159.802C148.95 160.884 151.876 160.827 154.422 159.646L161.048 156.571C162.563 155.868 163.877 154.797 164.872 153.456L172.928 142.593C174.178 140.907 175.927 139.657 177.927 139.021L194.936 133.607C197.182 132.892 199.608 132.994 201.787 133.893L232.889 146.741C236.261 148.134 240.124 147.58 242.969 145.296L248.826 140.592C249.317 140.198 249.768 139.759 250.176 139.281L258.925 129.014C260.825 126.784 263.607 125.5 266.536 125.5H283.709C285.437 125.5 287.135 125.948 288.638 126.799L294.032 129.855C296.948 131.507 300.498 131.588 303.487 130.071L305.926 128.833C309.832 126.851 314.574 127.642 317.626 130.784L323.629 136.967C325.512 138.906 328.1 140 330.803 140H332.124C335.634 140 338.888 138.159 340.696 135.15L351 118" stroke="white" stroke-width="3"/>
<path d="M1 192L21.8061 182.518C23.9575 181.538 26.3866 181.351 28.6624 181.992L59.4394 190.655C62.4501 191.502 65.6838 190.892 68.1789 189.006L94.4377 169.157C97.4111 166.91 101.388 166.502 104.755 168.1L107.477 169.392C110.278 170.721 113.538 170.676 116.302 169.268L121.563 166.589C122.968 165.873 124.523 165.5 126.101 165.5H134.053C135.376 165.5 136.686 165.762 137.907 166.272L146.36 169.802C148.95 170.884 151.876 170.827 154.422 169.646L161.048 166.571C162.563 165.868 163.877 164.797 164.872 163.456L172.928 152.593C174.178 150.907 175.927 149.657 177.927 149.021L194.936 143.607C197.182 142.892 199.608 142.994 201.787 143.893L232.889 156.741C236.261 158.134 240.124 157.58 242.969 155.296L248.826 150.592C249.317 150.198 249.768 149.759 250.176 149.281L258.925 139.014C260.825 136.784 263.607 135.5 266.536 135.5H283.709C285.437 135.5 287.135 135.948 288.638 136.799L294.032 139.855C296.948 141.507 300.498 141.588 303.487 140.071L305.926 138.833C309.832 136.851 314.574 137.642 317.626 140.784L323.629 146.967C325.512 148.906 328.1 150 330.803 150H332.124C335.634 150 338.888 148.159 340.696 145.15L351 128" stroke="white" stroke-opacity="0.06" stroke-width="3"/>
<path d="M70.162 14V4.2H72.43V14H70.162ZM84.2478 6.356C84.8451 6.356 85.3724 6.47733 85.8298 6.72C86.2964 6.95333 86.6604 7.31733 86.9218 7.812C87.1924 8.29733 87.3278 8.92267 87.3278 9.688V14H85.1438V10.024C85.1438 9.41733 85.0178 8.96933 84.7658 8.68C84.5138 8.39067 84.1591 8.246 83.7018 8.246C83.3844 8.246 83.0998 8.32067 82.8478 8.47C82.5958 8.61 82.3998 8.82467 82.2598 9.114C82.1198 9.40333 82.0498 9.772 82.0498 10.22V14H79.8658V10.024C79.8658 9.41733 79.7398 8.96933 79.4878 8.68C79.2451 8.39067 78.8951 8.246 78.4378 8.246C78.1204 8.246 77.8358 8.32067 77.5838 8.47C77.3318 8.61 77.1358 8.82467 76.9958 9.114C76.8558 9.40333 76.7858 9.772 76.7858 10.22V14H74.6018V6.468H76.6878V8.526L76.2958 7.924C76.5571 7.41067 76.9258 7.02333 77.4018 6.762C77.8871 6.49133 78.4378 6.356 79.0538 6.356C79.7444 6.356 80.3464 6.53333 80.8598 6.888C81.3824 7.23333 81.7278 7.76533 81.8958 8.484L81.1258 8.274C81.3778 7.686 81.7791 7.21933 82.3298 6.874C82.8898 6.52867 83.5291 6.356 84.2478 6.356ZM93.7373 14.112C93.1027 14.112 92.5473 13.972 92.0713 13.692C91.5953 13.412 91.222 12.9873 90.9513 12.418C90.69 11.8393 90.5593 11.1113 90.5593 10.234C90.5593 9.34733 90.6853 8.61933 90.9373 8.05C91.1893 7.48067 91.5533 7.056 92.0293 6.776C92.5053 6.496 93.0747 6.356 93.7373 6.356C94.4467 6.356 95.0813 6.51933 95.6413 6.846C96.2107 7.16333 96.6587 7.61133 96.9853 8.19C97.3213 8.76867 97.4893 9.45 97.4893 10.234C97.4893 11.0273 97.3213 11.7133 96.9853 12.292C96.6587 12.8707 96.2107 13.3187 95.6413 13.636C95.0813 13.9533 94.4467 14.112 93.7373 14.112ZM89.2853 16.716V6.468H91.3713V8.008L91.3293 10.248L91.4693 12.474V16.716H89.2853ZM93.3593 12.32C93.7233 12.32 94.0453 12.236 94.3253 12.068C94.6147 11.9 94.8433 11.662 95.0113 11.354C95.1887 11.0367 95.2773 10.6633 95.2773 10.234C95.2773 9.79533 95.1887 9.422 95.0113 9.114C94.8433 8.806 94.6147 8.568 94.3253 8.4C94.0453 8.232 93.7233 8.148 93.3593 8.148C92.9953 8.148 92.6687 8.232 92.3793 8.4C92.09 8.568 91.8613 8.806 91.6933 9.114C91.5253 9.422 91.4413 9.79533 91.4413 10.234C91.4413 10.6633 91.5253 11.0367 91.6933 11.354C91.8613 11.662 92.09 11.9 92.3793 12.068C92.6687 12.236 92.9953 12.32 93.3593 12.32ZM98.9514 14V6.468H101.037V8.596L100.743 7.98C100.967 7.448 101.327 7.04667 101.821 6.776C102.316 6.496 102.918 6.356 103.627 6.356V8.372C103.534 8.36267 103.45 8.358 103.375 8.358C103.301 8.34867 103.221 8.344 103.137 8.344C102.54 8.344 102.055 8.51667 101.681 8.862C101.317 9.198 101.135 9.72533 101.135 10.444V14H98.9514ZM108.609 14.112C107.751 14.112 106.995 13.944 106.341 13.608C105.697 13.272 105.198 12.8147 104.843 12.236C104.489 11.648 104.311 10.9807 104.311 10.234C104.311 9.478 104.484 8.81067 104.829 8.232C105.184 7.644 105.665 7.18667 106.271 6.86C106.878 6.524 107.564 6.356 108.329 6.356C109.067 6.356 109.729 6.51467 110.317 6.832C110.915 7.14 111.386 7.588 111.731 8.176C112.077 8.75467 112.249 9.45 112.249 10.262C112.249 10.346 112.245 10.444 112.235 10.556C112.226 10.6587 112.217 10.7567 112.207 10.85H106.089V9.576H111.059L110.219 9.954C110.219 9.562 110.14 9.22133 109.981 8.932C109.823 8.64267 109.603 8.41867 109.323 8.26C109.043 8.092 108.717 8.008 108.343 8.008C107.97 8.008 107.639 8.092 107.349 8.26C107.069 8.41867 106.85 8.64733 106.691 8.946C106.533 9.23533 106.453 9.58067 106.453 9.982V10.318C106.453 10.7287 106.542 11.0927 106.719 11.41C106.906 11.718 107.163 11.956 107.489 12.124C107.825 12.2827 108.217 12.362 108.665 12.362C109.067 12.362 109.417 12.3013 109.715 12.18C110.023 12.0587 110.303 11.8767 110.555 11.634L111.717 12.894C111.372 13.286 110.938 13.5893 110.415 13.804C109.893 14.0093 109.291 14.112 108.609 14.112ZM116.237 14.112C115.593 14.112 114.973 14.0373 114.375 13.888C113.787 13.7293 113.321 13.5333 112.975 13.3L113.703 11.732C114.049 11.9467 114.455 12.124 114.921 12.264C115.397 12.3947 115.864 12.46 116.321 12.46C116.825 12.46 117.18 12.3993 117.385 12.278C117.6 12.1567 117.707 11.9887 117.707 11.774C117.707 11.5967 117.623 11.466 117.455 11.382C117.297 11.2887 117.082 11.2187 116.811 11.172C116.541 11.1253 116.242 11.0787 115.915 11.032C115.598 10.9853 115.276 10.9247 114.949 10.85C114.623 10.766 114.324 10.6447 114.053 10.486C113.783 10.3273 113.563 10.1127 113.395 9.842C113.237 9.57133 113.157 9.22133 113.157 8.792C113.157 8.316 113.293 7.896 113.563 7.532C113.843 7.168 114.245 6.88333 114.767 6.678C115.29 6.46333 115.915 6.356 116.643 6.356C117.157 6.356 117.679 6.412 118.211 6.524C118.743 6.636 119.187 6.79933 119.541 7.014L118.813 8.568C118.449 8.35333 118.081 8.20867 117.707 8.134C117.343 8.05 116.989 8.008 116.643 8.008C116.158 8.008 115.803 8.07333 115.579 8.204C115.355 8.33467 115.243 8.50267 115.243 8.708C115.243 8.89467 115.323 9.03467 115.481 9.128C115.649 9.22133 115.869 9.296 116.139 9.352C116.41 9.408 116.704 9.45933 117.021 9.506C117.348 9.54333 117.675 9.604 118.001 9.688C118.328 9.772 118.622 9.89333 118.883 10.052C119.154 10.2013 119.373 10.4113 119.541 10.682C119.709 10.9433 119.793 11.2887 119.793 11.718C119.793 12.1847 119.653 12.6 119.373 12.964C119.093 13.3187 118.687 13.5987 118.155 13.804C117.633 14.0093 116.993 14.112 116.237 14.112ZM123.675 14.112C123.031 14.112 122.41 14.0373 121.813 13.888C121.225 13.7293 120.758 13.5333 120.413 13.3L121.141 11.732C121.486 11.9467 121.892 12.124 122.359 12.264C122.835 12.3947 123.301 12.46 123.759 12.46C124.263 12.46 124.617 12.3993 124.823 12.278C125.037 12.1567 125.145 11.9887 125.145 11.774C125.145 11.5967 125.061 11.466 124.893 11.382C124.734 11.2887 124.519 11.2187 124.249 11.172C123.978 11.1253 123.679 11.0787 123.353 11.032C123.035 10.9853 122.713 10.9247 122.387 10.85C122.06 10.766 121.761 10.6447 121.491 10.486C121.22 10.3273 121.001 10.1127 120.833 9.842C120.674 9.57133 120.595 9.22133 120.595 8.792C120.595 8.316 120.73 7.896 121.001 7.532C121.281 7.168 121.682 6.88333 122.205 6.678C122.727 6.46333 123.353 6.356 124.081 6.356C124.594 6.356 125.117 6.412 125.649 6.524C126.181 6.636 126.624 6.79933 126.979 7.014L126.251 8.568C125.887 8.35333 125.518 8.20867 125.145 8.134C124.781 8.05 124.426 8.008 124.081 8.008C123.595 8.008 123.241 8.07333 123.017 8.204C122.793 8.33467 122.681 8.50267 122.681 8.708C122.681 8.89467 122.76 9.03467 122.919 9.128C123.087 9.22133 123.306 9.296 123.577 9.352C123.847 9.408 124.141 9.45933 124.459 9.506C124.785 9.54333 125.112 9.604 125.439 9.688C125.765 9.772 126.059 9.89333 126.321 10.052C126.591 10.2013 126.811 10.4113 126.979 10.682C127.147 10.9433 127.231 11.2887 127.231 11.718C127.231 12.1847 127.091 12.6 126.811 12.964C126.531 13.3187 126.125 13.5987 125.593 13.804C125.07 14.0093 124.431 14.112 123.675 14.112ZM128.578 14V6.468H130.762V14H128.578ZM129.67 5.418C129.269 5.418 128.942 5.30133 128.69 5.068C128.438 4.83467 128.312 4.54533 128.312 4.2C128.312 3.85467 128.438 3.56533 128.69 3.332C128.942 3.09867 129.269 2.982 129.67 2.982C130.072 2.982 130.398 3.094 130.65 3.318C130.902 3.53267 131.028 3.81267 131.028 4.158C131.028 4.522 130.902 4.82533 130.65 5.068C130.408 5.30133 130.081 5.418 129.67 5.418ZM136.373 14.112C135.571 14.112 134.857 13.944 134.231 13.608C133.615 13.272 133.125 12.8147 132.761 12.236C132.407 11.648 132.229 10.9807 132.229 10.234C132.229 9.478 132.407 8.81067 132.761 8.232C133.125 7.644 133.615 7.18667 134.231 6.86C134.857 6.524 135.571 6.356 136.373 6.356C137.167 6.356 137.876 6.524 138.501 6.86C139.127 7.18667 139.617 7.63933 139.971 8.218C140.326 8.79667 140.503 9.46867 140.503 10.234C140.503 10.9807 140.326 11.648 139.971 12.236C139.617 12.8147 139.127 13.272 138.501 13.608C137.876 13.944 137.167 14.112 136.373 14.112ZM136.373 12.32C136.737 12.32 137.064 12.236 137.353 12.068C137.643 11.9 137.871 11.662 138.039 11.354C138.207 11.0367 138.291 10.6633 138.291 10.234C138.291 9.79533 138.207 9.422 138.039 9.114C137.871 8.806 137.643 8.568 137.353 8.4C137.064 8.232 136.737 8.148 136.373 8.148C136.009 8.148 135.683 8.232 135.393 8.4C135.104 8.568 134.871 8.806 134.693 9.114C134.525 9.422 134.441 9.79533 134.441 10.234C134.441 10.6633 134.525 11.0367 134.693 11.354C134.871 11.662 135.104 11.9 135.393 12.068C135.683 12.236 136.009 12.32 136.373 12.32ZM146.541 6.356C147.138 6.356 147.67 6.47733 148.137 6.72C148.613 6.95333 148.986 7.31733 149.257 7.812C149.528 8.29733 149.663 8.92267 149.663 9.688V14H147.479V10.024C147.479 9.41733 147.344 8.96933 147.073 8.68C146.812 8.39067 146.438 8.246 145.953 8.246C145.608 8.246 145.295 8.32067 145.015 8.47C144.744 8.61 144.53 8.82933 144.371 9.128C144.222 9.42667 144.147 9.80933 144.147 10.276V14H141.963V6.468H144.049V8.554L143.657 7.924C143.928 7.42 144.315 7.03267 144.819 6.762C145.323 6.49133 145.897 6.356 146.541 6.356ZM154.177 14.112C153.533 14.112 152.912 14.0373 152.315 13.888C151.727 13.7293 151.26 13.5333 150.915 13.3L151.643 11.732C151.988 11.9467 152.394 12.124 152.861 12.264C153.337 12.3947 153.803 12.46 154.261 12.46C154.765 12.46 155.119 12.3993 155.325 12.278C155.539 12.1567 155.647 11.9887 155.647 11.774C155.647 11.5967 155.563 11.466 155.395 11.382C155.236 11.2887 155.021 11.2187 154.751 11.172C154.48 11.1253 154.181 11.0787 153.855 11.032C153.537 10.9853 153.215 10.9247 152.889 10.85C152.562 10.766 152.263 10.6447 151.993 10.486C151.722 10.3273 151.503 10.1127 151.335 9.842C151.176 9.57133 151.097 9.22133 151.097 8.792C151.097 8.316 151.232 7.896 151.503 7.532C151.783 7.168 152.184 6.88333 152.707 6.678C153.229 6.46333 153.855 6.356 154.583 6.356C155.096 6.356 155.619 6.412 156.151 6.524C156.683 6.636 157.126 6.79933 157.481 7.014L156.753 8.568C156.389 8.35333 156.02 8.20867 155.647 8.134C155.283 8.05 154.928 8.008 154.583 8.008C154.097 8.008 153.743 8.07333 153.519 8.204C153.295 8.33467 153.183 8.50267 153.183 8.708C153.183 8.89467 153.262 9.03467 153.421 9.128C153.589 9.22133 153.808 9.296 154.079 9.352C154.349 9.408 154.643 9.45933 154.961 9.506C155.287 9.54333 155.614 9.604 155.941 9.688C156.267 9.772 156.561 9.89333 156.823 10.052C157.093 10.2013 157.313 10.4113 157.481 10.682C157.649 10.9433 157.733 11.2887 157.733 11.718C157.733 12.1847 157.593 12.6 157.313 12.964C157.033 13.3187 156.627 13.5987 156.095 13.804C155.572 14.0093 154.933 14.112 154.177 14.112Z" fill="white"/>
<rect x="112" y="19" width="4" height="4" rx="2" fill="white"/>
<path d="M222.744 8.428H227.784V9.618H222.744V8.428ZM222.87 12.782H228.582V14H221.47V4.2H228.386V5.418H222.87V12.782ZM235.163 14V12.432L235.093 12.138V9.464C235.093 8.89467 234.925 8.456 234.589 8.148C234.263 7.83067 233.768 7.672 233.105 7.672C232.667 7.672 232.237 7.74667 231.817 7.896C231.397 8.036 231.043 8.22733 230.753 8.47L230.193 7.462C230.576 7.154 231.033 6.92067 231.565 6.762C232.107 6.594 232.671 6.51 233.259 6.51C234.277 6.51 235.061 6.75733 235.611 7.252C236.162 7.74667 236.437 8.50267 236.437 9.52V14H235.163ZM232.727 14.084C232.177 14.084 231.691 13.9907 231.271 13.804C230.861 13.6173 230.543 13.3607 230.319 13.034C230.095 12.698 229.983 12.32 229.983 11.9C229.983 11.4987 230.077 11.1347 230.263 10.808C230.459 10.4813 230.772 10.22 231.201 10.024C231.64 9.828 232.228 9.73 232.965 9.73H235.317V10.696H233.021C232.349 10.696 231.897 10.808 231.663 11.032C231.43 11.256 231.313 11.5267 231.313 11.844C231.313 12.208 231.458 12.502 231.747 12.726C232.037 12.9407 232.438 13.048 232.951 13.048C233.455 13.048 233.894 12.936 234.267 12.712C234.65 12.488 234.925 12.1613 235.093 11.732L235.359 12.656C235.182 13.0947 234.869 13.4447 234.421 13.706C233.973 13.958 233.409 14.084 232.727 14.084ZM238.924 14V6.58H240.212V8.596L240.086 8.092C240.292 7.57867 240.637 7.18667 241.122 6.916C241.608 6.64533 242.205 6.51 242.914 6.51V7.812C242.858 7.80267 242.802 7.798 242.746 7.798C242.7 7.798 242.653 7.798 242.606 7.798C241.888 7.798 241.318 8.01267 240.898 8.442C240.478 8.87133 240.268 9.492 240.268 10.304V14H238.924ZM248.533 6.51C249.14 6.51 249.672 6.62667 250.129 6.86C250.596 7.09333 250.96 7.448 251.221 7.924C251.482 8.4 251.613 9.002 251.613 9.73V14H250.269V9.884C250.269 9.16533 250.092 8.624 249.737 8.26C249.392 7.896 248.902 7.714 248.267 7.714C247.791 7.714 247.376 7.80733 247.021 7.994C246.666 8.18067 246.391 8.456 246.195 8.82C246.008 9.184 245.915 9.63667 245.915 10.178V14H244.571V6.58H245.859V8.582L245.649 8.05C245.892 7.56467 246.265 7.18667 246.769 6.916C247.273 6.64533 247.861 6.51 248.533 6.51ZM254.1 14V6.58H255.444V14H254.1ZM254.772 5.152C254.511 5.152 254.292 5.068 254.114 4.9C253.946 4.732 253.862 4.52667 253.862 4.284C253.862 4.032 253.946 3.822 254.114 3.654C254.292 3.486 254.511 3.402 254.772 3.402C255.034 3.402 255.248 3.486 255.416 3.654C255.594 3.81267 255.682 4.01333 255.682 4.256C255.682 4.508 255.598 4.72267 255.43 4.9C255.262 5.068 255.043 5.152 254.772 5.152ZM261.972 6.51C262.579 6.51 263.111 6.62667 263.568 6.86C264.035 7.09333 264.399 7.448 264.66 7.924C264.922 8.4 265.052 9.002 265.052 9.73V14H263.708V9.884C263.708 9.16533 263.531 8.624 263.176 8.26C262.831 7.896 262.341 7.714 261.706 7.714C261.23 7.714 260.815 7.80733 260.46 7.994C260.106 8.18067 259.83 8.456 259.634 8.82C259.448 9.184 259.354 9.63667 259.354 10.178V14H258.01V6.58H259.298V8.582L259.088 8.05C259.331 7.56467 259.704 7.18667 260.208 6.916C260.712 6.64533 261.3 6.51 261.972 6.51ZM270.788 16.8C270.106 16.8 269.444 16.702 268.8 16.506C268.165 16.3193 267.647 16.0487 267.246 15.694L267.89 14.658C268.235 14.9567 268.66 15.19 269.164 15.358C269.668 15.5353 270.195 15.624 270.746 15.624C271.623 15.624 272.267 15.4187 272.678 15.008C273.088 14.5973 273.294 13.972 273.294 13.132V11.564L273.434 10.094L273.364 8.61V6.58H274.638V12.992C274.638 14.2987 274.311 15.26 273.658 15.876C273.004 16.492 272.048 16.8 270.788 16.8ZM270.62 13.692C269.901 13.692 269.257 13.5427 268.688 13.244C268.128 12.936 267.68 12.5113 267.344 11.97C267.017 11.4287 266.854 10.8033 266.854 10.094C266.854 9.37533 267.017 8.75 267.344 8.218C267.68 7.67667 268.128 7.25667 268.688 6.958C269.257 6.65933 269.901 6.51 270.62 6.51C271.254 6.51 271.833 6.64067 272.356 6.902C272.878 7.154 273.294 7.546 273.602 8.078C273.919 8.61 274.078 9.282 274.078 10.094C274.078 10.8967 273.919 11.564 273.602 12.096C273.294 12.628 272.878 13.0293 272.356 13.3C271.833 13.5613 271.254 13.692 270.62 13.692ZM270.774 12.516C271.268 12.516 271.707 12.4133 272.09 12.208C272.472 12.0027 272.771 11.718 272.986 11.354C273.21 10.99 273.322 10.57 273.322 10.094C273.322 9.618 273.21 9.198 272.986 8.834C272.771 8.47 272.472 8.19 272.09 7.994C271.707 7.78867 271.268 7.686 270.774 7.686C270.279 7.686 269.836 7.78867 269.444 7.994C269.061 8.19 268.758 8.47 268.534 8.834C268.319 9.198 268.212 9.618 268.212 10.094C268.212 10.57 268.319 10.99 268.534 11.354C268.758 11.718 269.061 12.0027 269.444 12.208C269.836 12.4133 270.279 12.516 270.774 12.516ZM279.334 14.084C278.718 14.084 278.13 14 277.57 13.832C277.019 13.664 276.585 13.4587 276.268 13.216L276.828 12.152C277.145 12.3667 277.537 12.5487 278.004 12.698C278.47 12.8473 278.946 12.922 279.432 12.922C280.057 12.922 280.505 12.8333 280.776 12.656C281.056 12.4787 281.196 12.2313 281.196 11.914C281.196 11.6807 281.112 11.4987 280.944 11.368C280.776 11.2373 280.552 11.1393 280.272 11.074C280.001 11.0087 279.698 10.9527 279.362 10.906C279.026 10.85 278.69 10.7847 278.354 10.71C278.018 10.626 277.71 10.514 277.43 10.374C277.15 10.2247 276.926 10.024 276.758 9.772C276.59 9.51067 276.506 9.16533 276.506 8.736C276.506 8.288 276.632 7.896 276.884 7.56C277.136 7.224 277.49 6.96733 277.948 6.79C278.414 6.60333 278.965 6.51 279.6 6.51C280.085 6.51 280.575 6.57067 281.07 6.692C281.574 6.804 281.984 6.96733 282.302 7.182L281.728 8.246C281.392 8.022 281.042 7.868 280.678 7.784C280.314 7.7 279.95 7.658 279.586 7.658C278.998 7.658 278.559 7.756 278.27 7.952C277.98 8.13867 277.836 8.38133 277.836 8.68C277.836 8.932 277.92 9.128 278.088 9.268C278.265 9.39867 278.489 9.50133 278.76 9.576C279.04 9.65067 279.348 9.716 279.684 9.772C280.02 9.81867 280.356 9.884 280.692 9.968C281.028 10.0427 281.331 10.15 281.602 10.29C281.882 10.43 282.106 10.626 282.274 10.878C282.451 11.13 282.54 11.466 282.54 11.886C282.54 12.334 282.409 12.7213 282.148 13.048C281.886 13.3747 281.518 13.6313 281.042 13.818C280.566 13.9953 279.996 14.084 279.334 14.084Z" fill="white" fill-opacity="0.7"/>
<path d="M109.531 82H107.688V74.6484C107.688 74.4036 107.69 74.1589 107.695 73.9141C107.701 73.6693 107.706 73.4297 107.711 73.1953C107.721 72.9609 107.734 72.737 107.75 72.5234C107.641 72.6432 107.505 72.7734 107.344 72.9141C107.188 73.0547 107.021 73.2005 106.844 73.3516L105.531 74.3984L104.609 73.2344L108 70.5781H109.531V82ZM115.734 80.1406L115.844 80.3203C115.75 80.6953 115.63 81.099 115.484 81.5312C115.339 81.9635 115.18 82.3958 115.008 82.8281C114.836 83.2656 114.661 83.6771 114.484 84.0625H113.141C113.25 83.6406 113.354 83.1979 113.453 82.7344C113.557 82.276 113.651 81.8229 113.734 81.375C113.823 80.9219 113.893 80.5104 113.945 80.1406H115.734ZM125.383 82H117.648V80.6172L120.609 77.6172C121.182 77.0339 121.654 76.5312 122.023 76.1094C122.393 75.6823 122.667 75.2786 122.844 74.8984C123.026 74.5182 123.117 74.1042 123.117 73.6562C123.117 73.1042 122.958 72.6875 122.641 72.4062C122.323 72.1198 121.904 71.9766 121.383 71.9766C120.888 71.9766 120.43 72.0755 120.008 72.2734C119.591 72.4661 119.159 72.7422 118.711 73.1016L117.703 71.8906C118.021 71.6198 118.359 71.3724 118.719 71.1484C119.083 70.9245 119.49 70.7474 119.938 70.6172C120.385 70.4818 120.896 70.4141 121.469 70.4141C122.193 70.4141 122.818 70.5443 123.344 70.8047C123.87 71.0599 124.273 71.4167 124.555 71.875C124.841 72.3333 124.984 72.8672 124.984 73.4766C124.984 74.0911 124.862 74.6589 124.617 75.1797C124.372 75.7005 124.023 76.2161 123.57 76.7266C123.117 77.2318 122.578 77.7812 121.953 78.375L119.977 80.3047V80.3906H125.383V82ZM134.102 73.1875C134.102 73.7031 133.997 74.151 133.789 74.5312C133.581 74.9115 133.294 75.224 132.93 75.4688C132.57 75.7083 132.154 75.8802 131.68 75.9844V76.0391C132.591 76.1536 133.279 76.4401 133.742 76.8984C134.211 77.3568 134.445 77.9635 134.445 78.7188C134.445 79.3802 134.286 79.9714 133.969 80.4922C133.651 81.0078 133.164 81.4141 132.508 81.7109C131.852 82.0078 131.008 82.1562 129.977 82.1562C129.357 82.1562 128.781 82.1068 128.25 82.0078C127.724 81.9089 127.224 81.75 126.75 81.5312V79.8984C127.234 80.138 127.75 80.3229 128.297 80.4531C128.844 80.5833 129.362 80.6484 129.852 80.6484C130.805 80.6484 131.484 80.4714 131.891 80.1172C132.297 79.7578 132.5 79.263 132.5 78.6328C132.5 78.2266 132.393 77.8932 132.18 77.6328C131.971 77.3724 131.646 77.1771 131.203 77.0469C130.766 76.9167 130.201 76.8516 129.508 76.8516H128.5V75.375H129.516C130.177 75.375 130.708 75.2969 131.109 75.1406C131.51 74.9792 131.799 74.7578 131.977 74.4766C132.159 74.1953 132.25 73.8672 132.25 73.4922C132.25 73.0026 132.091 72.6224 131.773 72.3516C131.456 72.0755 130.984 71.9375 130.359 71.9375C129.974 71.9375 129.622 71.9818 129.305 72.0703C128.992 72.1589 128.703 72.2708 128.438 72.4062C128.172 72.5417 127.919 72.6875 127.68 72.8438L126.797 71.5703C127.229 71.2474 127.745 70.974 128.344 70.75C128.943 70.526 129.641 70.4141 130.438 70.4141C131.609 70.4141 132.513 70.6667 133.148 71.1719C133.784 71.6719 134.102 72.3438 134.102 73.1875ZM143.695 76.2812C143.695 77.2031 143.622 78.0286 143.477 78.7578C143.336 79.4818 143.112 80.0964 142.805 80.6016C142.497 81.1068 142.096 81.4922 141.602 81.7578C141.107 82.0234 140.508 82.1562 139.805 82.1562C138.924 82.1562 138.198 81.9245 137.625 81.4609C137.052 80.9922 136.628 80.3203 136.352 79.4453C136.076 78.5651 135.938 77.5104 135.938 76.2812C135.938 75.0521 136.062 74 136.312 73.125C136.568 72.2448 136.979 71.5703 137.547 71.1016C138.115 70.6328 138.867 70.3984 139.805 70.3984C140.69 70.3984 141.419 70.6328 141.992 71.1016C142.57 71.5651 142.997 72.237 143.273 73.1172C143.555 73.9922 143.695 75.0469 143.695 76.2812ZM137.789 76.2812C137.789 77.2448 137.852 78.0495 137.977 78.6953C138.107 79.3411 138.32 79.8255 138.617 80.1484C138.914 80.4661 139.31 80.625 139.805 80.625C140.299 80.625 140.695 80.4661 140.992 80.1484C141.289 79.8307 141.503 79.349 141.633 78.7031C141.768 78.0573 141.836 77.25 141.836 76.2812C141.836 75.3229 141.771 74.5208 141.641 73.875C141.51 73.2292 141.297 72.7448 141 72.4219C140.703 72.0938 140.305 71.9297 139.805 71.9297C139.305 71.9297 138.906 72.0938 138.609 72.4219C138.318 72.7448 138.107 73.2292 137.977 73.875C137.852 74.5208 137.789 75.3229 137.789 76.2812ZM147.562 80.1406L147.672 80.3203C147.578 80.6953 147.458 81.099 147.312 81.5312C147.167 81.9635 147.008 82.3958 146.836 82.8281C146.664 83.2656 146.49 83.6771 146.312 84.0625H144.969C145.078 83.6406 145.182 83.1979 145.281 82.7344C145.385 82.276 145.479 81.8229 145.562 81.375C145.651 80.9219 145.721 80.5104 145.773 80.1406H147.562ZM157.211 76.2812C157.211 77.2031 157.138 78.0286 156.992 78.7578C156.852 79.4818 156.628 80.0964 156.32 80.6016C156.013 81.1068 155.612 81.4922 155.117 81.7578C154.622 82.0234 154.023 82.1562 153.32 82.1562C152.44 82.1562 151.714 81.9245 151.141 81.4609C150.568 80.9922 150.143 80.3203 149.867 79.4453C149.591 78.5651 149.453 77.5104 149.453 76.2812C149.453 75.0521 149.578 74 149.828 73.125C150.083 72.2448 150.495 71.5703 151.062 71.1016C151.63 70.6328 152.383 70.3984 153.32 70.3984C154.206 70.3984 154.935 70.6328 155.508 71.1016C156.086 71.5651 156.513 72.237 156.789 73.1172C157.07 73.9922 157.211 75.0469 157.211 76.2812ZM151.305 76.2812C151.305 77.2448 151.367 78.0495 151.492 78.6953C151.622 79.3411 151.836 79.8255 152.133 80.1484C152.43 80.4661 152.826 80.625 153.32 80.625C153.815 80.625 154.211 80.4661 154.508 80.1484C154.805 79.8307 155.018 79.349 155.148 78.7031C155.284 78.0573 155.352 77.25 155.352 76.2812C155.352 75.3229 155.286 74.5208 155.156 73.875C155.026 73.2292 154.812 72.7448 154.516 72.4219C154.219 72.0938 153.82 71.9297 153.32 71.9297C152.82 71.9297 152.422 72.0938 152.125 72.4219C151.833 72.7448 151.622 73.2292 151.492 73.875C151.367 74.5208 151.305 75.3229 151.305 76.2812ZM158.648 77.1328C158.648 76.4609 158.695 75.7995 158.789 75.1484C158.888 74.4974 159.055 73.888 159.289 73.3203C159.523 72.7526 159.846 72.2526 160.258 71.8203C160.674 71.388 161.198 71.0495 161.828 70.8047C162.458 70.5547 163.216 70.4297 164.102 70.4297C164.331 70.4297 164.589 70.4401 164.875 70.4609C165.161 70.4818 165.398 70.5156 165.586 70.5625V72.0859C165.383 72.0286 165.159 71.9844 164.914 71.9531C164.674 71.9219 164.435 71.9062 164.195 71.9062C163.237 71.9062 162.49 72.0885 161.953 72.4531C161.417 72.8125 161.034 73.3073 160.805 73.9375C160.576 74.5625 160.443 75.2786 160.406 76.0859H160.5C160.656 75.8255 160.852 75.5938 161.086 75.3906C161.32 75.1875 161.607 75.026 161.945 74.9062C162.284 74.7812 162.677 74.7188 163.125 74.7188C163.792 74.7188 164.372 74.8594 164.867 75.1406C165.362 75.4167 165.742 75.8177 166.008 76.3438C166.279 76.8698 166.414 77.5078 166.414 78.2578C166.414 79.0651 166.26 79.7604 165.953 80.3438C165.651 80.9271 165.219 81.375 164.656 81.6875C164.099 82 163.435 82.1562 162.664 82.1562C162.096 82.1562 161.568 82.0521 161.078 81.8438C160.594 81.6354 160.169 81.3229 159.805 80.9062C159.44 80.4896 159.156 79.9688 158.953 79.3438C158.75 78.7135 158.648 77.9766 158.648 77.1328ZM162.633 80.6406C163.227 80.6406 163.703 80.4479 164.062 80.0625C164.427 79.6719 164.609 79.0755 164.609 78.2734C164.609 77.6224 164.448 77.1068 164.125 76.7266C163.807 76.3464 163.328 76.1562 162.688 76.1562C162.25 76.1562 161.867 76.25 161.539 76.4375C161.211 76.625 160.956 76.862 160.773 77.1484C160.596 77.4349 160.508 77.7266 160.508 78.0234C160.508 78.3255 160.552 78.6302 160.641 78.9375C160.729 79.2448 160.862 79.5286 161.039 79.7891C161.216 80.0443 161.438 80.25 161.703 80.4062C161.969 80.5625 162.279 80.6406 162.633 80.6406ZM175.523 76.2812C175.523 77.2031 175.451 78.0286 175.305 78.7578C175.164 79.4818 174.94 80.0964 174.633 80.6016C174.326 81.1068 173.924 81.4922 173.43 81.7578C172.935 82.0234 172.336 82.1562 171.633 82.1562C170.753 82.1562 170.026 81.9245 169.453 81.4609C168.88 80.9922 168.456 80.3203 168.18 79.4453C167.904 78.5651 167.766 77.5104 167.766 76.2812C167.766 75.0521 167.891 74 168.141 73.125C168.396 72.2448 168.807 71.5703 169.375 71.1016C169.943 70.6328 170.695 70.3984 171.633 70.3984C172.518 70.3984 173.247 70.6328 173.82 71.1016C174.398 71.5651 174.826 72.237 175.102 73.1172C175.383 73.9922 175.523 75.0469 175.523 76.2812ZM169.617 76.2812C169.617 77.2448 169.68 78.0495 169.805 78.6953C169.935 79.3411 170.148 79.8255 170.445 80.1484C170.742 80.4661 171.138 80.625 171.633 80.625C172.128 80.625 172.523 80.4661 172.82 80.1484C173.117 79.8307 173.331 79.349 173.461 78.7031C173.596 78.0573 173.664 77.25 173.664 76.2812C173.664 75.3229 173.599 74.5208 173.469 73.875C173.339 73.2292 173.125 72.7448 172.828 72.4219C172.531 72.0938 172.133 71.9297 171.633 71.9297C171.133 71.9297 170.734 72.0938 170.438 72.4219C170.146 72.7448 169.935 73.2292 169.805 73.875C169.68 74.5208 169.617 75.3229 169.617 76.2812ZM188.961 82L187.844 78.8281H183.477L182.359 82H180.383L184.633 70.5312H186.711L190.953 82H188.961ZM187.359 77.2188L186.273 74.0938C186.232 73.9583 186.172 73.7682 186.094 73.5234C186.016 73.2734 185.938 73.0208 185.859 72.7656C185.781 72.5052 185.716 72.2865 185.664 72.1094C185.612 72.3229 185.547 72.5625 185.469 72.8281C185.396 73.0885 185.323 73.3333 185.25 73.5625C185.182 73.7917 185.13 73.9688 185.094 74.0938L184 77.2188H187.359ZM195.18 82.1562C194.148 82.1562 193.32 81.7812 192.695 81.0312C192.076 80.276 191.766 79.1641 191.766 77.6953C191.766 76.2109 192.081 75.0885 192.711 74.3281C193.346 73.5677 194.182 73.1875 195.219 73.1875C195.656 73.1875 196.039 73.2474 196.367 73.3672C196.695 73.4818 196.977 73.638 197.211 73.8359C197.451 74.0339 197.654 74.2552 197.82 74.5H197.906C197.88 74.3385 197.849 74.1068 197.812 73.8047C197.781 73.4974 197.766 73.2135 197.766 72.9531V69.8438H199.609V82H198.172L197.844 80.8203H197.766C197.609 81.0703 197.411 81.2969 197.172 81.5C196.938 81.6979 196.656 81.8568 196.328 81.9766C196.005 82.0964 195.622 82.1562 195.18 82.1562ZM195.695 80.6641C196.482 80.6641 197.036 80.4375 197.359 79.9844C197.682 79.5312 197.849 78.8516 197.859 77.9453V77.7031C197.859 76.7344 197.703 75.9922 197.391 75.4766C197.078 74.9557 196.508 74.6953 195.68 74.6953C195.018 74.6953 194.513 74.9635 194.164 75.5C193.82 76.0312 193.648 76.7734 193.648 77.7266C193.648 78.6797 193.82 79.4089 194.164 79.9141C194.513 80.4141 195.023 80.6641 195.695 80.6641ZM215.055 70.5781L211.062 82H209.078L205.086 70.5781H207.008L209.414 77.7344C209.487 77.9427 209.565 78.1953 209.648 78.4922C209.737 78.7891 209.818 79.0885 209.891 79.3906C209.969 79.6927 210.029 79.9609 210.07 80.1953C210.112 79.9609 210.169 79.6927 210.242 79.3906C210.32 79.0885 210.401 78.7891 210.484 78.4922C210.568 78.1953 210.646 77.9401 210.719 77.7266L213.133 70.5781H215.055ZM218.203 73.3516V82H216.367V73.3516H218.203ZM217.297 70.0391C217.578 70.0391 217.82 70.1146 218.023 70.2656C218.232 70.4167 218.336 70.6771 218.336 71.0469C218.336 71.4115 218.232 71.6719 218.023 71.8281C217.82 71.9792 217.578 72.0547 217.297 72.0547C217.005 72.0547 216.758 71.9792 216.555 71.8281C216.357 71.6719 216.258 71.4115 216.258 71.0469C216.258 70.6771 216.357 70.4167 216.555 70.2656C216.758 70.1146 217.005 70.0391 217.297 70.0391ZM224.281 73.1875C225.052 73.1875 225.714 73.3464 226.266 73.6641C226.818 73.9818 227.242 74.4323 227.539 75.0156C227.836 75.599 227.984 76.2969 227.984 77.1094V78.0938H222.211C222.232 78.9323 222.456 79.5781 222.883 80.0312C223.315 80.4844 223.919 80.7109 224.695 80.7109C225.247 80.7109 225.742 80.6589 226.18 80.5547C226.622 80.4453 227.078 80.2865 227.547 80.0781V81.5703C227.115 81.7734 226.674 81.9219 226.227 82.0156C225.779 82.1094 225.242 82.1562 224.617 82.1562C223.768 82.1562 223.021 81.9922 222.375 81.6641C221.734 81.3307 221.232 80.8359 220.867 80.1797C220.508 79.5234 220.328 78.7083 220.328 77.7344C220.328 76.7656 220.492 75.9427 220.82 75.2656C221.148 74.5885 221.609 74.0729 222.203 73.7188C222.797 73.3646 223.49 73.1875 224.281 73.1875ZM224.281 74.5703C223.703 74.5703 223.234 74.7578 222.875 75.1328C222.521 75.5078 222.312 76.0573 222.25 76.7812H226.188C226.182 76.349 226.109 75.9661 225.969 75.6328C225.833 75.2995 225.625 75.0391 225.344 74.8516C225.068 74.6641 224.714 74.5703 224.281 74.5703ZM237.125 81.9922L236.031 77.9688C235.979 77.7708 235.917 77.5312 235.844 77.25C235.771 76.9688 235.698 76.6797 235.625 76.3828C235.552 76.0807 235.484 75.8021 235.422 75.5469C235.365 75.2917 235.32 75.0938 235.289 74.9531H235.227C235.201 75.0938 235.159 75.2917 235.102 75.5469C235.044 75.8021 234.979 76.0807 234.906 76.3828C234.833 76.6849 234.76 76.9792 234.688 77.2656C234.62 77.5521 234.557 77.7969 234.5 78L233.352 81.9922H231.336L228.914 73.3438H230.773L231.898 77.6406C231.971 77.9323 232.042 78.2474 232.109 78.5859C232.182 78.9245 232.245 79.2474 232.297 79.5547C232.349 79.862 232.388 80.1146 232.414 80.3125H232.477C232.497 80.1719 232.526 79.9948 232.562 79.7812C232.599 79.5625 232.641 79.3359 232.688 79.1016C232.734 78.862 232.781 78.638 232.828 78.4297C232.875 78.2161 232.919 78.0443 232.961 77.9141L234.289 73.3438H236.297L237.57 77.9141C237.628 78.112 237.69 78.362 237.758 78.6641C237.826 78.9609 237.885 79.2604 237.938 79.5625C237.995 79.8594 238.031 80.1068 238.047 80.3047H238.109C238.13 80.1276 238.167 79.888 238.219 79.5859C238.276 79.2786 238.341 78.9531 238.414 78.6094C238.487 78.2604 238.562 77.9375 238.641 77.6406L239.789 73.3438H241.617L239.18 81.9922H237.125ZM248.914 79.5312C248.914 80.099 248.776 80.5781 248.5 80.9688C248.224 81.3594 247.82 81.6562 247.289 81.8594C246.763 82.0573 246.117 82.1562 245.352 82.1562C244.747 82.1562 244.227 82.112 243.789 82.0234C243.357 81.9401 242.948 81.8099 242.562 81.6328V80.0469C242.974 80.2396 243.435 80.4062 243.945 80.5469C244.461 80.6875 244.948 80.7578 245.406 80.7578C246.01 80.7578 246.445 80.6641 246.711 80.4766C246.977 80.2839 247.109 80.0286 247.109 79.7109C247.109 79.5234 247.055 79.3568 246.945 79.2109C246.841 79.0599 246.643 78.9062 246.352 78.75C246.065 78.5885 245.643 78.3958 245.086 78.1719C244.539 77.9531 244.078 77.7344 243.703 77.5156C243.328 77.2969 243.044 77.0339 242.852 76.7266C242.659 76.4141 242.562 76.0156 242.562 75.5312C242.562 74.7656 242.865 74.1849 243.469 73.7891C244.078 73.388 244.883 73.1875 245.883 73.1875C246.414 73.1875 246.914 73.2422 247.383 73.3516C247.857 73.4557 248.32 73.6094 248.773 73.8125L248.195 75.1953C247.805 75.0234 247.411 74.8828 247.016 74.7734C246.625 74.6589 246.227 74.6016 245.82 74.6016C245.346 74.6016 244.984 74.6745 244.734 74.8203C244.49 74.9661 244.367 75.1745 244.367 75.4453C244.367 75.6484 244.427 75.8203 244.547 75.9609C244.667 76.1016 244.872 76.2422 245.164 76.3828C245.461 76.5234 245.872 76.6979 246.398 76.9062C246.914 77.1042 247.359 77.3125 247.734 77.5312C248.115 77.7448 248.406 78.0078 248.609 78.3203C248.812 78.6328 248.914 79.0365 248.914 79.5312ZM91.375 106L95.8594 96.1875H89.9297V94.5781H97.8359V95.8359L93.3516 106H91.375ZM106.961 100.281C106.961 101.203 106.888 102.029 106.742 102.758C106.602 103.482 106.378 104.096 106.07 104.602C105.763 105.107 105.362 105.492 104.867 105.758C104.372 106.023 103.773 106.156 103.07 106.156C102.19 106.156 101.464 105.924 100.891 105.461C100.318 104.992 99.8932 104.32 99.6172 103.445C99.3411 102.565 99.2031 101.51 99.2031 100.281C99.2031 99.0521 99.3281 98 99.5781 97.125C99.8333 96.2448 100.245 95.5703 100.812 95.1016C101.38 94.6328 102.133 94.3984 103.07 94.3984C103.956 94.3984 104.685 94.6328 105.258 95.1016C105.836 95.5651 106.263 96.237 106.539 97.1172C106.82 97.9922 106.961 99.0469 106.961 100.281ZM101.055 100.281C101.055 101.245 101.117 102.049 101.242 102.695C101.372 103.341 101.586 103.826 101.883 104.148C102.18 104.466 102.576 104.625 103.07 104.625C103.565 104.625 103.961 104.466 104.258 104.148C104.555 103.831 104.768 103.349 104.898 102.703C105.034 102.057 105.102 101.25 105.102 100.281C105.102 99.3229 105.036 98.5208 104.906 97.875C104.776 97.2292 104.562 96.7448 104.266 96.4219C103.969 96.0938 103.57 95.9297 103.07 95.9297C102.57 95.9297 102.172 96.0938 101.875 96.4219C101.583 96.7448 101.372 97.2292 101.242 97.875C101.117 98.5208 101.055 99.3229 101.055 100.281ZM116.117 106H108.383V104.617L111.344 101.617C111.917 101.034 112.388 100.531 112.758 100.109C113.128 99.6823 113.401 99.2786 113.578 98.8984C113.76 98.5182 113.852 98.1042 113.852 97.6562C113.852 97.1042 113.693 96.6875 113.375 96.4062C113.057 96.1198 112.638 95.9766 112.117 95.9766C111.622 95.9766 111.164 96.0755 110.742 96.2734C110.326 96.4661 109.893 96.7422 109.445 97.1016L108.438 95.8906C108.755 95.6198 109.094 95.3724 109.453 95.1484C109.818 94.9245 110.224 94.7474 110.672 94.6172C111.12 94.4818 111.63 94.4141 112.203 94.4141C112.927 94.4141 113.552 94.5443 114.078 94.8047C114.604 95.0599 115.008 95.4167 115.289 95.875C115.576 96.3333 115.719 96.8672 115.719 97.4766C115.719 98.0911 115.596 98.6589 115.352 99.1797C115.107 99.7005 114.758 100.216 114.305 100.727C113.852 101.232 113.312 101.781 112.688 102.375L110.711 104.305V104.391H116.117V106ZM117.867 105.031C117.867 104.604 117.977 104.305 118.195 104.133C118.419 103.956 118.69 103.867 119.008 103.867C119.326 103.867 119.596 103.956 119.82 104.133C120.049 104.305 120.164 104.604 120.164 105.031C120.164 105.448 120.049 105.75 119.82 105.938C119.596 106.12 119.326 106.211 119.008 106.211C118.69 106.211 118.419 106.12 118.195 105.938C117.977 105.75 117.867 105.448 117.867 105.031ZM125.781 94.4219C126.443 94.4219 127.039 94.526 127.57 94.7344C128.102 94.9375 128.523 95.2422 128.836 95.6484C129.148 96.0547 129.305 96.5573 129.305 97.1562C129.305 97.6198 129.208 98.0234 129.016 98.3672C128.828 98.7109 128.573 99.013 128.25 99.2734C127.927 99.5286 127.565 99.7552 127.164 99.9531C127.612 100.172 128.023 100.424 128.398 100.711C128.779 100.992 129.083 101.323 129.312 101.703C129.547 102.083 129.664 102.529 129.664 103.039C129.664 103.68 129.5 104.234 129.172 104.703C128.849 105.167 128.398 105.526 127.82 105.781C127.242 106.031 126.568 106.156 125.797 106.156C124.969 106.156 124.263 106.034 123.68 105.789C123.096 105.544 122.654 105.195 122.352 104.742C122.049 104.284 121.898 103.737 121.898 103.102C121.898 102.576 122.003 102.12 122.211 101.734C122.419 101.349 122.698 101.016 123.047 100.734C123.401 100.453 123.789 100.216 124.211 100.023C123.852 99.8099 123.523 99.5703 123.227 99.3047C122.93 99.0339 122.693 98.724 122.516 98.375C122.344 98.0208 122.258 97.612 122.258 97.1484C122.258 96.5547 122.417 96.0573 122.734 95.6562C123.052 95.25 123.477 94.9427 124.008 94.7344C124.544 94.526 125.135 94.4219 125.781 94.4219ZM123.648 103.031C123.648 103.531 123.826 103.943 124.18 104.266C124.534 104.589 125.062 104.75 125.766 104.75C126.464 104.75 126.995 104.591 127.359 104.273C127.724 103.956 127.906 103.536 127.906 103.016C127.906 102.682 127.812 102.388 127.625 102.133C127.443 101.878 127.195 101.651 126.883 101.453C126.576 101.25 126.234 101.062 125.859 100.891L125.609 100.789C125.203 100.961 124.854 101.156 124.562 101.375C124.271 101.589 124.044 101.831 123.883 102.102C123.727 102.372 123.648 102.682 123.648 103.031ZM125.766 95.8359C125.26 95.8359 124.844 95.9609 124.516 96.2109C124.193 96.4557 124.031 96.8099 124.031 97.2734C124.031 97.6016 124.109 97.8828 124.266 98.1172C124.427 98.3516 124.643 98.5547 124.914 98.7266C125.185 98.8932 125.484 99.0495 125.812 99.1953C126.13 99.0547 126.417 98.901 126.672 98.7344C126.932 98.5625 127.138 98.3594 127.289 98.125C127.445 97.8854 127.523 97.599 127.523 97.2656C127.523 96.8073 127.359 96.4557 127.031 96.2109C126.708 95.9609 126.286 95.8359 125.766 95.8359ZM138.805 99.4453C138.805 100.122 138.755 100.786 138.656 101.438C138.562 102.089 138.396 102.698 138.156 103.266C137.922 103.833 137.596 104.336 137.18 104.773C136.768 105.206 136.247 105.544 135.617 105.789C134.987 106.034 134.227 106.156 133.336 106.156C133.112 106.156 132.852 106.143 132.555 106.117C132.263 106.096 132.023 106.065 131.836 106.023V104.492C132.034 104.549 132.255 104.596 132.5 104.633C132.75 104.664 132.997 104.68 133.242 104.68C134.206 104.68 134.956 104.5 135.492 104.141C136.034 103.781 136.417 103.286 136.641 102.656C136.87 102.026 137 101.31 137.031 100.508H136.938C136.786 100.758 136.596 100.987 136.367 101.195C136.138 101.398 135.854 101.562 135.516 101.688C135.177 101.807 134.766 101.867 134.281 101.867C133.625 101.867 133.052 101.729 132.562 101.453C132.078 101.177 131.701 100.776 131.43 100.25C131.164 99.7188 131.031 99.0807 131.031 98.3359C131.031 97.5286 131.185 96.8333 131.492 96.25C131.799 95.6667 132.234 95.2188 132.797 94.9062C133.359 94.5885 134.021 94.4297 134.781 94.4297C135.354 94.4297 135.883 94.5339 136.367 94.7422C136.857 94.9453 137.284 95.2578 137.648 95.6797C138.013 96.0964 138.297 96.6198 138.5 97.25C138.703 97.875 138.805 98.6068 138.805 99.4453ZM134.805 95.9453C134.227 95.9453 133.755 96.1406 133.391 96.5312C133.026 96.9167 132.844 97.5104 132.844 98.3125C132.844 98.9635 133 99.4792 133.312 99.8594C133.625 100.24 134.104 100.43 134.75 100.43C135.198 100.43 135.583 100.339 135.906 100.156C136.234 99.9688 136.487 99.7318 136.664 99.4453C136.846 99.1589 136.938 98.8672 136.938 98.5703C136.938 98.263 136.893 97.9557 136.805 97.6484C136.721 97.3411 136.591 97.0599 136.414 96.8047C136.237 96.5495 136.013 96.3438 135.742 96.1875C135.477 96.026 135.164 95.9453 134.805 95.9453ZM149.141 106H147.258V96.1719H143.914V94.5781H152.477V96.1719H149.141V106ZM164.367 100.273C164.367 101.154 164.255 101.956 164.031 102.68C163.812 103.398 163.482 104.018 163.039 104.539C162.596 105.055 162.042 105.453 161.375 105.734C160.708 106.016 159.927 106.156 159.031 106.156C158.12 106.156 157.328 106.016 156.656 105.734C155.99 105.453 155.435 105.052 154.992 104.531C154.555 104.01 154.227 103.388 154.008 102.664C153.789 101.94 153.68 101.138 153.68 100.258C153.68 99.0807 153.872 98.0547 154.258 97.1797C154.648 96.2995 155.24 95.6172 156.031 95.1328C156.828 94.6432 157.833 94.3984 159.047 94.3984C160.234 94.3984 161.221 94.6406 162.008 95.125C162.794 95.6094 163.383 96.2917 163.773 97.1719C164.169 98.0469 164.367 99.0807 164.367 100.273ZM155.648 100.273C155.648 101.154 155.768 101.917 156.008 102.562C156.247 103.203 156.615 103.698 157.109 104.047C157.609 104.391 158.25 104.562 159.031 104.562C159.818 104.562 160.458 104.391 160.953 104.047C161.448 103.698 161.812 103.203 162.047 102.562C162.281 101.917 162.398 101.154 162.398 100.273C162.398 98.9349 162.13 97.888 161.594 97.1328C161.062 96.3724 160.214 95.9922 159.047 95.9922C158.266 95.9922 157.622 96.1641 157.117 96.5078C156.617 96.8516 156.247 97.3438 156.008 97.9844C155.768 98.6198 155.648 99.3828 155.648 100.273ZM176.352 106H174.047L168.453 96.8828H168.383C168.404 97.1901 168.422 97.5156 168.438 97.8594C168.458 98.2031 168.474 98.5573 168.484 98.9219C168.5 99.2865 168.513 99.6562 168.523 100.031V106H166.82V94.5781H169.109L174.695 103.633H174.75C174.74 103.367 174.727 103.062 174.711 102.719C174.695 102.375 174.68 102.021 174.664 101.656C174.654 101.286 174.646 100.93 174.641 100.586V94.5781H176.352V106ZM184.977 103.531C184.977 104.099 184.839 104.578 184.562 104.969C184.286 105.359 183.883 105.656 183.352 105.859C182.826 106.057 182.18 106.156 181.414 106.156C180.81 106.156 180.289 106.112 179.852 106.023C179.419 105.94 179.01 105.81 178.625 105.633V104.047C179.036 104.24 179.497 104.406 180.008 104.547C180.523 104.688 181.01 104.758 181.469 104.758C182.073 104.758 182.508 104.664 182.773 104.477C183.039 104.284 183.172 104.029 183.172 103.711C183.172 103.523 183.117 103.357 183.008 103.211C182.904 103.06 182.706 102.906 182.414 102.75C182.128 102.589 181.706 102.396 181.148 102.172C180.602 101.953 180.141 101.734 179.766 101.516C179.391 101.297 179.107 101.034 178.914 100.727C178.721 100.414 178.625 100.016 178.625 99.5312C178.625 98.7656 178.927 98.1849 179.531 97.7891C180.141 97.388 180.945 97.1875 181.945 97.1875C182.477 97.1875 182.977 97.2422 183.445 97.3516C183.919 97.4557 184.383 97.6094 184.836 97.8125L184.258 99.1953C183.867 99.0234 183.474 98.8828 183.078 98.7734C182.688 98.6589 182.289 98.6016 181.883 98.6016C181.409 98.6016 181.047 98.6745 180.797 98.8203C180.552 98.9661 180.43 99.1745 180.43 99.4453C180.43 99.6484 180.49 99.8203 180.609 99.9609C180.729 100.102 180.935 100.242 181.227 100.383C181.523 100.523 181.935 100.698 182.461 100.906C182.977 101.104 183.422 101.312 183.797 101.531C184.177 101.745 184.469 102.008 184.672 102.32C184.875 102.633 184.977 103.036 184.977 103.531ZM190.445 101.617C190.445 100.742 190.529 99.888 190.695 99.0547C190.867 98.2214 191.128 97.4271 191.477 96.6719C191.826 95.9167 192.266 95.2188 192.797 94.5781H194.398C193.654 95.5729 193.091 96.6745 192.711 97.8828C192.336 99.0911 192.148 100.331 192.148 101.602C192.148 102.43 192.232 103.25 192.398 104.062C192.565 104.875 192.815 105.656 193.148 106.406C193.482 107.161 193.893 107.87 194.383 108.531H192.797C192.266 107.906 191.826 107.224 191.477 106.484C191.128 105.745 190.867 104.964 190.695 104.141C190.529 103.318 190.445 102.477 190.445 101.617ZM198.93 106.93V105.32C198.284 105.31 197.688 105.253 197.141 105.148C196.599 105.039 196.13 104.898 195.734 104.727V103.062C196.135 103.25 196.63 103.419 197.219 103.57C197.807 103.721 198.378 103.807 198.93 103.828V100.898C198.174 100.643 197.56 100.378 197.086 100.102C196.617 99.8255 196.273 99.5052 196.055 99.1406C195.836 98.7708 195.727 98.3281 195.727 97.8125C195.727 97.2812 195.859 96.8255 196.125 96.4453C196.396 96.0599 196.771 95.7552 197.25 95.5312C197.734 95.3073 198.294 95.1745 198.93 95.1328V93.8594H199.945V95.1094C200.523 95.125 201.057 95.1901 201.547 95.3047C202.042 95.4141 202.513 95.5677 202.961 95.7656L202.391 97.2188C202 97.0625 201.594 96.9349 201.172 96.8359C200.75 96.737 200.341 96.6693 199.945 96.6328V99.4922C200.581 99.7005 201.146 99.9245 201.641 100.164C202.141 100.404 202.531 100.706 202.812 101.07C203.099 101.43 203.242 101.901 203.242 102.484C203.242 103.25 202.961 103.883 202.398 104.383C201.836 104.878 201.018 105.174 199.945 105.273V106.93H198.93ZM199.945 103.766C200.445 103.703 200.818 103.573 201.062 103.375C201.307 103.172 201.43 102.909 201.43 102.586C201.43 102.367 201.378 102.182 201.273 102.031C201.174 101.88 201.016 101.745 200.797 101.625C200.583 101.505 200.299 101.388 199.945 101.273V103.766ZM198.93 99.1094V96.6641C198.628 96.6953 198.372 96.7578 198.164 96.8516C197.956 96.9453 197.799 97.0677 197.695 97.2188C197.591 97.3698 197.539 97.5495 197.539 97.7578C197.539 97.987 197.586 98.1823 197.68 98.3438C197.773 98.5052 197.922 98.6458 198.125 98.7656C198.333 98.8854 198.602 99 198.93 99.1094ZM212.906 103.492H211.359V106H209.547V103.492H204.352V102.102L209.57 94.5469H211.359V101.969H212.906V103.492ZM209.547 101.969V99.1328C209.547 98.8984 209.549 98.6615 209.555 98.4219C209.565 98.1771 209.576 97.9427 209.586 97.7188C209.596 97.4948 209.607 97.2891 209.617 97.1016C209.628 96.9089 209.635 96.75 209.641 96.625H209.578C209.479 96.8333 209.37 97.0469 209.25 97.2656C209.13 97.4792 209.003 97.6875 208.867 97.8906L206.055 101.969H209.547ZM216.359 104.141L216.469 104.32C216.375 104.695 216.255 105.099 216.109 105.531C215.964 105.964 215.805 106.396 215.633 106.828C215.461 107.266 215.286 107.677 215.109 108.062H213.766C213.875 107.641 213.979 107.198 214.078 106.734C214.182 106.276 214.276 105.823 214.359 105.375C214.448 104.922 214.518 104.51 214.57 104.141H216.359ZM225.992 99.4453C225.992 100.122 225.943 100.786 225.844 101.438C225.75 102.089 225.583 102.698 225.344 103.266C225.109 103.833 224.784 104.336 224.367 104.773C223.956 105.206 223.435 105.544 222.805 105.789C222.174 106.034 221.414 106.156 220.523 106.156C220.299 106.156 220.039 106.143 219.742 106.117C219.451 106.096 219.211 106.065 219.023 106.023V104.492C219.221 104.549 219.443 104.596 219.688 104.633C219.938 104.664 220.185 104.68 220.43 104.68C221.393 104.68 222.143 104.5 222.68 104.141C223.221 103.781 223.604 103.286 223.828 102.656C224.057 102.026 224.188 101.31 224.219 100.508H224.125C223.974 100.758 223.784 100.987 223.555 101.195C223.326 101.398 223.042 101.562 222.703 101.688C222.365 101.807 221.953 101.867 221.469 101.867C220.812 101.867 220.24 101.729 219.75 101.453C219.266 101.177 218.888 100.776 218.617 100.25C218.352 99.7188 218.219 99.0807 218.219 98.3359C218.219 97.5286 218.372 96.8333 218.68 96.25C218.987 95.6667 219.422 95.2188 219.984 94.9062C220.547 94.5885 221.208 94.4297 221.969 94.4297C222.542 94.4297 223.07 94.5339 223.555 94.7422C224.044 94.9453 224.471 95.2578 224.836 95.6797C225.201 96.0964 225.484 96.6198 225.688 97.25C225.891 97.875 225.992 98.6068 225.992 99.4453ZM221.992 95.9453C221.414 95.9453 220.943 96.1406 220.578 96.5312C220.214 96.9167 220.031 97.5104 220.031 98.3125C220.031 98.9635 220.188 99.4792 220.5 99.8594C220.812 100.24 221.292 100.43 221.938 100.43C222.385 100.43 222.771 100.339 223.094 100.156C223.422 99.9688 223.674 99.7318 223.852 99.4453C224.034 99.1589 224.125 98.8672 224.125 98.5703C224.125 98.263 224.081 97.9557 223.992 97.6484C223.909 97.3411 223.779 97.0599 223.602 96.8047C223.424 96.5495 223.201 96.3438 222.93 96.1875C222.664 96.026 222.352 95.9453 221.992 95.9453ZM235.164 106H227.43V104.617L230.391 101.617C230.964 101.034 231.435 100.531 231.805 100.109C232.174 99.6823 232.448 99.2786 232.625 98.8984C232.807 98.5182 232.898 98.1042 232.898 97.6562C232.898 97.1042 232.74 96.6875 232.422 96.4062C232.104 96.1198 231.685 95.9766 231.164 95.9766C230.669 95.9766 230.211 96.0755 229.789 96.2734C229.372 96.4661 228.94 96.7422 228.492 97.1016L227.484 95.8906C227.802 95.6198 228.141 95.3724 228.5 95.1484C228.865 94.9245 229.271 94.7474 229.719 94.6172C230.167 94.4818 230.677 94.4141 231.25 94.4141C231.974 94.4141 232.599 94.5443 233.125 94.8047C233.651 95.0599 234.055 95.4167 234.336 95.875C234.622 96.3333 234.766 96.8672 234.766 97.4766C234.766 98.0911 234.643 98.6589 234.398 99.1797C234.154 99.7005 233.805 100.216 233.352 100.727C232.898 101.232 232.359 101.781 231.734 102.375L229.758 104.305V104.391H235.164V106ZM244.32 100.281C244.32 101.203 244.247 102.029 244.102 102.758C243.961 103.482 243.737 104.096 243.43 104.602C243.122 105.107 242.721 105.492 242.227 105.758C241.732 106.023 241.133 106.156 240.43 106.156C239.549 106.156 238.823 105.924 238.25 105.461C237.677 104.992 237.253 104.32 236.977 103.445C236.701 102.565 236.562 101.51 236.562 100.281C236.562 99.0521 236.688 98 236.938 97.125C237.193 96.2448 237.604 95.5703 238.172 95.1016C238.74 94.6328 239.492 94.3984 240.43 94.3984C241.315 94.3984 242.044 94.6328 242.617 95.1016C243.195 95.5651 243.622 96.237 243.898 97.1172C244.18 97.9922 244.32 99.0469 244.32 100.281ZM238.414 100.281C238.414 101.245 238.477 102.049 238.602 102.695C238.732 103.341 238.945 103.826 239.242 104.148C239.539 104.466 239.935 104.625 240.43 104.625C240.924 104.625 241.32 104.466 241.617 104.148C241.914 103.831 242.128 103.349 242.258 102.703C242.393 102.057 242.461 101.25 242.461 100.281C242.461 99.3229 242.396 98.5208 242.266 97.875C242.135 97.2292 241.922 96.7448 241.625 96.4219C241.328 96.0938 240.93 95.9297 240.43 95.9297C239.93 95.9297 239.531 96.0938 239.234 96.4219C238.943 96.7448 238.732 97.2292 238.602 97.875C238.477 98.5208 238.414 99.3229 238.414 100.281ZM246.07 105.031C246.07 104.604 246.18 104.305 246.398 104.133C246.622 103.956 246.893 103.867 247.211 103.867C247.529 103.867 247.799 103.956 248.023 104.133C248.253 104.305 248.367 104.604 248.367 105.031C248.367 105.448 248.253 105.75 248.023 105.938C247.799 106.12 247.529 106.211 247.211 106.211C246.893 106.211 246.622 106.12 246.398 105.938C246.18 105.75 246.07 105.448 246.07 105.031ZM257.867 106H250.133V104.617L253.094 101.617C253.667 101.034 254.138 100.531 254.508 100.109C254.878 99.6823 255.151 99.2786 255.328 98.8984C255.51 98.5182 255.602 98.1042 255.602 97.6562C255.602 97.1042 255.443 96.6875 255.125 96.4062C254.807 96.1198 254.388 95.9766 253.867 95.9766C253.372 95.9766 252.914 96.0755 252.492 96.2734C252.076 96.4661 251.643 96.7422 251.195 97.1016L250.188 95.8906C250.505 95.6198 250.844 95.3724 251.203 95.1484C251.568 94.9245 251.974 94.7474 252.422 94.6172C252.87 94.4818 253.38 94.4141 253.953 94.4141C254.677 94.4141 255.302 94.5443 255.828 94.8047C256.354 95.0599 256.758 95.4167 257.039 95.875C257.326 96.3333 257.469 96.8672 257.469 97.4766C257.469 98.0911 257.346 98.6589 257.102 99.1797C256.857 99.7005 256.508 100.216 256.055 100.727C255.602 101.232 255.062 101.781 254.438 102.375L252.461 104.305V104.391H257.867V106ZM263 101.609C263 102.474 262.917 103.318 262.75 104.141C262.583 104.964 262.326 105.745 261.977 106.484C261.633 107.224 261.19 107.906 260.648 108.531H259.07C259.56 107.87 259.971 107.161 260.305 106.406C260.638 105.651 260.888 104.867 261.055 104.055C261.221 103.242 261.305 102.422 261.305 101.594C261.305 100.75 261.219 99.9167 261.047 99.0938C260.88 98.2708 260.63 97.4792 260.297 96.7188C259.964 95.9531 259.549 95.2396 259.055 94.5781H260.648C261.19 95.2188 261.633 95.9167 261.977 96.6719C262.326 97.4271 262.583 98.2214 262.75 99.0547C262.917 99.8828 263 100.734 263 101.609Z" fill="white"/>
<rect x="171" y="135" width="10" height="10" rx="5" fill="white"/>
<path d="M31.0684 256.782C30.8177 256.782 30.599 256.766 30.4121 256.734C30.2207 256.707 30.0566 256.668 29.9199 256.618V255.244C30.0658 255.281 30.223 255.312 30.3916 255.34C30.5602 255.367 30.7402 255.381 30.9316 255.381C31.1823 255.381 31.4102 255.333 31.6152 255.237C31.8203 255.142 31.9821 254.968 32.1006 254.718C32.2236 254.467 32.2852 254.114 32.2852 253.658V244.006H33.9258V253.604C33.9258 254.346 33.8073 254.95 33.5703 255.415C33.3333 255.884 33.0007 256.229 32.5723 256.447C32.1439 256.671 31.6426 256.782 31.0684 256.782ZM44.3574 244.006V250.473C44.3574 251.17 44.2093 251.794 43.9131 252.346C43.6214 252.897 43.1794 253.335 42.5869 253.658C41.9945 253.977 41.2493 254.137 40.3516 254.137C39.071 254.137 38.0957 253.802 37.4258 253.132C36.7604 252.457 36.4277 251.562 36.4277 250.445V244.006H38.0684V250.302C38.0684 251.136 38.2643 251.751 38.6562 252.147C39.0482 252.544 39.6338 252.742 40.4131 252.742C40.9508 252.742 41.3883 252.649 41.7256 252.462C42.0674 252.271 42.318 251.993 42.4775 251.628C42.6416 251.259 42.7236 250.814 42.7236 250.295V244.006H44.3574ZM55.2539 254H53.2373L48.3428 246.022H48.2812C48.2995 246.291 48.3154 246.576 48.3291 246.877C48.3473 247.178 48.361 247.488 48.3701 247.807C48.3838 248.126 48.3952 248.449 48.4043 248.777V254H46.9141V244.006H48.917L53.8047 251.929H53.8525C53.8434 251.696 53.832 251.43 53.8184 251.129C53.8047 250.828 53.791 250.518 53.7773 250.199C53.7682 249.876 53.7614 249.563 53.7568 249.263V244.006H55.2539V254Z" fill="white" fill-opacity="0.7"/>
<path d="M93.5684 256.782C93.3177 256.782 93.099 256.766 92.9121 256.734C92.7207 256.707 92.5566 256.668 92.4199 256.618V255.244C92.5658 255.281 92.723 255.312 92.8916 255.34C93.0602 255.367 93.2402 255.381 93.4316 255.381C93.6823 255.381 93.9102 255.333 94.1152 255.237C94.3203 255.142 94.4821 254.968 94.6006 254.718C94.7236 254.467 94.7852 254.114 94.7852 253.658V244.006H96.4258V253.604C96.4258 254.346 96.3073 254.95 96.0703 255.415C95.8333 255.884 95.5007 256.229 95.0723 256.447C94.6439 256.671 94.1426 256.782 93.5684 256.782ZM106.857 244.006V250.473C106.857 251.17 106.709 251.794 106.413 252.346C106.121 252.897 105.679 253.335 105.087 253.658C104.494 253.977 103.749 254.137 102.852 254.137C101.571 254.137 100.596 253.802 99.9258 253.132C99.2604 252.457 98.9277 251.562 98.9277 250.445V244.006H100.568V250.302C100.568 251.136 100.764 251.751 101.156 252.147C101.548 252.544 102.134 252.742 102.913 252.742C103.451 252.742 103.888 252.649 104.226 252.462C104.567 252.271 104.818 251.993 104.978 251.628C105.142 251.259 105.224 250.814 105.224 250.295V244.006H106.857ZM109.414 254V244.006H111.055V252.605H115.3V254H109.414Z" fill="white" fill-opacity="0.7"/>
<path d="M160.376 254L159.651 251.621H156.008L155.283 254H153L156.527 243.965H159.118L162.659 254H160.376ZM159.146 249.844L158.421 247.52C158.375 247.365 158.314 247.166 158.236 246.925C158.163 246.679 158.088 246.43 158.011 246.18C157.938 245.924 157.879 245.703 157.833 245.517C157.787 245.703 157.724 245.936 157.642 246.214C157.564 246.487 157.489 246.747 157.416 246.993C157.343 247.239 157.291 247.415 157.259 247.52L156.541 249.844H159.146ZM172.059 244.006V250.473C172.059 251.161 171.906 251.783 171.601 252.339C171.3 252.89 170.842 253.328 170.227 253.651C169.616 253.975 168.846 254.137 167.916 254.137C166.594 254.137 165.587 253.799 164.895 253.125C164.202 252.451 163.855 251.557 163.855 250.445V244.006H165.968V250.124C165.968 250.949 166.136 251.528 166.474 251.86C166.811 252.193 167.31 252.359 167.971 252.359C168.436 252.359 168.812 252.28 169.099 252.12C169.39 251.961 169.604 251.715 169.741 251.382C169.878 251.049 169.946 250.625 169.946 250.11V244.006H172.059ZM178.3 248.388H182.265V253.569C181.741 253.743 181.196 253.882 180.631 253.986C180.066 254.087 179.425 254.137 178.71 254.137C177.716 254.137 176.873 253.941 176.181 253.549C175.488 253.157 174.962 252.578 174.602 251.812C174.242 251.047 174.062 250.106 174.062 248.989C174.062 247.941 174.262 247.034 174.663 246.269C175.069 245.503 175.659 244.91 176.434 244.491C177.213 244.072 178.163 243.862 179.284 243.862C179.813 243.862 180.335 243.919 180.85 244.033C181.365 244.147 181.832 244.295 182.251 244.478L181.547 246.173C181.242 246.018 180.893 245.888 180.501 245.783C180.109 245.678 179.699 245.626 179.271 245.626C178.655 245.626 178.12 245.767 177.664 246.05C177.213 246.332 176.862 246.729 176.611 247.239C176.365 247.745 176.242 248.342 176.242 249.03C176.242 249.682 176.331 250.261 176.509 250.767C176.687 251.268 176.967 251.662 177.35 251.949C177.732 252.232 178.231 252.373 178.847 252.373C179.147 252.373 179.4 252.359 179.605 252.332C179.815 252.3 180.011 252.268 180.193 252.236V250.151H178.3V248.388Z" fill="white"/>
<path d="M227.582 251.279C227.582 251.872 227.436 252.382 227.145 252.811C226.857 253.239 226.443 253.567 225.9 253.795C225.363 254.023 224.72 254.137 223.973 254.137C223.608 254.137 223.259 254.116 222.927 254.075C222.594 254.034 222.28 253.975 221.983 253.897C221.692 253.815 221.425 253.717 221.184 253.604V252.059C221.589 252.236 222.043 252.398 222.544 252.544C223.045 252.685 223.556 252.756 224.075 252.756C224.499 252.756 224.85 252.701 225.128 252.592C225.41 252.478 225.62 252.318 225.757 252.113C225.894 251.904 225.962 251.66 225.962 251.382C225.962 251.086 225.882 250.835 225.723 250.63C225.563 250.425 225.322 250.238 224.998 250.069C224.679 249.896 224.278 249.712 223.795 249.516C223.467 249.383 223.152 249.233 222.852 249.064C222.555 248.896 222.291 248.698 222.059 248.47C221.826 248.242 221.642 247.973 221.505 247.663C221.373 247.349 221.307 246.979 221.307 246.556C221.307 245.991 221.441 245.507 221.71 245.106C221.983 244.705 222.366 244.398 222.858 244.184C223.355 243.969 223.934 243.862 224.595 243.862C225.119 243.862 225.611 243.917 226.071 244.026C226.536 244.136 226.992 244.291 227.438 244.491L226.919 245.811C226.509 245.642 226.11 245.507 225.723 245.407C225.34 245.307 224.948 245.257 224.547 245.257C224.201 245.257 223.907 245.309 223.665 245.414C223.424 245.519 223.239 245.667 223.111 245.858C222.988 246.045 222.927 246.269 222.927 246.528C222.927 246.82 222.997 247.066 223.139 247.267C223.285 247.463 223.508 247.643 223.809 247.807C224.114 247.971 224.506 248.153 224.984 248.354C225.536 248.581 226.003 248.821 226.386 249.071C226.773 249.322 227.069 249.623 227.274 249.974C227.479 250.32 227.582 250.755 227.582 251.279ZM235.17 254H229.51V244.006H235.17V245.387H231.15V248.101H234.917V249.475H231.15V252.612H235.17V254ZM240.235 244.006C241.525 244.006 242.466 244.27 243.059 244.799C243.651 245.327 243.947 246.068 243.947 247.021C243.947 247.453 243.879 247.866 243.742 248.258C243.61 248.645 243.391 248.989 243.086 249.29C242.781 249.586 242.377 249.821 241.876 249.994C241.379 250.167 240.766 250.254 240.037 250.254H238.971V254H237.33V244.006H240.235ZM240.126 245.366H238.971V248.887H239.866C240.381 248.887 240.819 248.827 241.179 248.709C241.539 248.586 241.812 248.392 241.999 248.128C242.186 247.864 242.279 247.515 242.279 247.082C242.279 246.503 242.104 246.073 241.753 245.79C241.407 245.507 240.864 245.366 240.126 245.366ZM249.409 254H247.762V245.4H244.836V244.006H252.328V245.4H249.409V254Z" fill="white" fill-opacity="0.7"/>
<path d="M299.652 254H297.636L292.741 246.022H292.68C292.698 246.291 292.714 246.576 292.728 246.877C292.746 247.178 292.759 247.488 292.769 247.807C292.782 248.126 292.794 248.449 292.803 248.777V254H291.312V244.006H293.315L298.203 251.929H298.251C298.242 251.696 298.23 251.43 298.217 251.129C298.203 250.828 298.189 250.518 298.176 250.199C298.167 249.876 298.16 249.563 298.155 249.263V244.006H299.652V254ZM311.15 248.989C311.15 249.759 311.052 250.461 310.856 251.095C310.665 251.724 310.376 252.266 309.988 252.722C309.601 253.173 309.116 253.521 308.532 253.768C307.949 254.014 307.265 254.137 306.481 254.137C305.684 254.137 304.991 254.014 304.403 253.768C303.82 253.521 303.335 253.171 302.947 252.715C302.564 252.259 302.277 251.715 302.086 251.081C301.895 250.448 301.799 249.746 301.799 248.976C301.799 247.946 301.967 247.048 302.305 246.282C302.646 245.512 303.164 244.915 303.856 244.491C304.554 244.063 305.433 243.849 306.495 243.849C307.534 243.849 308.398 244.061 309.086 244.484C309.774 244.908 310.289 245.505 310.631 246.275C310.977 247.041 311.15 247.946 311.15 248.989ZM303.521 248.989C303.521 249.759 303.626 250.427 303.836 250.992C304.046 251.553 304.367 251.986 304.8 252.291C305.237 252.592 305.798 252.742 306.481 252.742C307.17 252.742 307.73 252.592 308.163 252.291C308.596 251.986 308.915 251.553 309.12 250.992C309.325 250.427 309.428 249.759 309.428 248.989C309.428 247.818 309.193 246.902 308.724 246.241C308.259 245.576 307.516 245.243 306.495 245.243C305.812 245.243 305.249 245.394 304.807 245.694C304.369 245.995 304.046 246.426 303.836 246.986C303.626 247.542 303.521 248.21 303.521 248.989ZM320.707 244.006L317.214 254H315.478L311.984 244.006H313.666L315.771 250.268C315.835 250.45 315.904 250.671 315.977 250.931C316.054 251.19 316.125 251.452 316.188 251.717C316.257 251.981 316.309 252.216 316.346 252.421C316.382 252.216 316.432 251.981 316.496 251.717C316.564 251.452 316.635 251.19 316.708 250.931C316.781 250.671 316.849 250.448 316.913 250.261L319.025 244.006H320.707Z" fill="white" fill-opacity="0.7"/>
</svg>
