<svg xmlns="http://www.w3.org/2000/svg" width="250" height="250" fill="none" viewBox="0 0 250 250"><rect width="250" height="250" fill="url(#a)" rx="40"/><path fill="#fff" d="M124.27 139A39.65 39.65 0 0 0 164 99.44a39.65 39.65 0 0 0-39.73-39.57c-6.95 0-12.58 17.71-12.58 39.57 0 21.85 5.63 39.56 12.58 39.56Zm1.46-10.88A39.65 39.65 0 0 1 86 88.56 39.64 39.64 0 0 1 125.73 49c6.95 0 12.58 17.71 12.58 39.56 0 21.86-5.63 39.57-12.58 39.57ZM73.4 176.38c-1.78 0-3.42-.28-4.93-.86-1.5-.58-2.8-1.39-3.9-2.43A11.41 11.41 0 0 1 62 169.4c-.6-1.41-.9-2.95-.9-4.61 0-1.66.3-3.2.9-4.6.62-1.42 1.49-2.64 2.6-3.69a11.84 11.84 0 0 1 3.9-2.43 13.4 13.4 0 0 1 4.86-.86c1.77 0 3.4.28 4.87.86a11.49 11.49 0 0 1 6.46 6.11c.62 1.39.93 2.93.93 4.61a11.18 11.18 0 0 1-7.4 10.72c-1.46.58-3.08.86-4.82.86Zm-.04-4.41c1 0 1.92-.17 2.76-.51a6.6 6.6 0 0 0 3.7-3.75c.37-.87.55-1.84.55-2.91s-.18-2.04-.54-2.91a6.53 6.53 0 0 0-3.68-3.75 7.44 7.44 0 0 0-2.79-.5 6.67 6.67 0 0 0-6.5 4.26 7.95 7.95 0 0 0-.5 2.9c0 1.04.17 2.02.5 2.91a6.6 6.6 0 0 0 3.71 3.74c.86.35 1.8.52 2.8.52Zm26.97 4.41c-1.77 0-3.4-.27-4.9-.83a11.41 11.41 0 0 1-6.43-6.11c-.6-1.4-.9-2.95-.9-4.64 0-1.69.3-3.23.9-4.64a11.18 11.18 0 0 1 6.5-6.08c1.5-.58 3.14-.86 4.93-.86 1.98 0 3.76.33 5.34.99 1.6.66 2.95 1.62 4.03 2.88l-3.33 3.07a7.9 7.9 0 0 0-5.79-2.53 8.3 8.3 0 0 0-2.97.51 6.8 6.8 0 0 0-2.34 1.48 6.92 6.92 0 0 0-2.01 5.18c0 1.04.17 2 .5 2.88.37.88.87 1.64 1.51 2.3a6.86 6.86 0 0 0 2.3 1.48 9.35 9.35 0 0 0 5.92.03c.99-.34 1.94-.9 2.85-1.7l2.95 3.75a13.48 13.48 0 0 1-4.26 2.1c-1.6.5-3.2.74-4.8.74Zm4.32-3.52v-8.41h4.74v9.09l-4.74-.68Zm9.55 3.14v-22.4h9.7c2 0 3.73.33 5.18 1a7.49 7.49 0 0 1 3.36 2.78 7.82 7.82 0 0 1 1.19 4.35c0 1.66-.4 3.1-1.19 4.32a7.56 7.56 0 0 1-3.36 2.75c-1.45.64-3.18.96-5.18.96h-6.82l2.3-2.27V176h-5.18Zm14.24 0-5.6-8.13h5.54l5.66 8.13h-5.6Zm-9.05-7.94-2.3-2.43h6.52c1.6 0 2.8-.34 3.58-1.02a3.66 3.66 0 0 0 1.19-2.88c0-1.24-.4-2.2-1.19-2.88-.78-.69-1.98-1.03-3.58-1.03h-6.53l2.3-2.46v12.7Zm15.4 7.94 9.98-22.4h5.12l10.02 22.4h-5.44l-8.2-19.78h2.06L140.1 176h-5.31Zm5-4.8 1.37-3.94h11.52l1.4 3.94h-14.3Zm22.44 4.8v-22.4h4.3l9.53 15.8h-2.27l9.37-15.8h4.26l.06 22.4h-4.86l-.03-14.94h.9l-7.5 12.57h-2.33L166 161.06h1.09V176h-4.87Z"/><path fill="#fff" fill-opacity=".7" d="M65.32 197v-11.2h1.31l7.4 9.2h-.68v-9.2h1.6V197h-1.31l-7.41-9.2h.69v9.2h-1.6Zm20.36-6.37h5.76V192h-5.76v-1.36Zm.14 4.98h6.53V197h-8.13v-11.2h7.9v1.4h-6.3v8.4ZM103.1 197v-9.8h-3.84v-1.4h9.26v1.4h-3.84v9.8h-1.58Zm15.53 0-3.74-11.2h1.65l3.44 10.34h-.83l3.56-10.34h1.47l3.5 10.34h-.8l3.48-10.34h1.52l-3.74 11.2h-1.68l-3.27-9.58h.43l-3.28 9.58h-1.7Zm26.07.13c-.85 0-1.64-.15-2.38-.43a5.69 5.69 0 0 1-3.58-5.3 5.68 5.68 0 0 1 1.7-4.08 5.63 5.63 0 0 1 1.88-1.22 6.4 6.4 0 0 1 2.38-.43c.86 0 1.64.15 2.36.43a5.43 5.43 0 0 1 3.13 3.01c.3.7.45 1.46.45 2.29a5.72 5.72 0 0 1-1.7 4.11c-.53.51-1.16.91-1.88 1.2-.72.28-1.5.42-2.36.42Zm0-1.43a4.5 4.5 0 0 0 3.1-1.21 4.3 4.3 0 0 0 1.25-3.09 4.3 4.3 0 0 0-2.63-3.98 4.66 4.66 0 0 0-3.46 0 4.16 4.16 0 0 0-2.62 3.98c0 .62.1 1.19.32 1.71s.53.98.92 1.38a4.26 4.26 0 0 0 3.13 1.21ZM159 197v-11.2h4.38c.98 0 1.81.16 2.5.46.7.31 1.23.76 1.6 1.35.38.58.57 1.28.57 2.1 0 .8-.19 1.5-.56 2.09a3.6 3.6 0 0 1-1.6 1.33c-.7.3-1.53.46-2.51.46h-3.5l.73-.73V197H159Zm7.5 0-2.85-4.06h1.7l2.89 4.06h-1.74Zm-5.9-3.98-.71-.79h3.44c1.02 0 1.8-.22 2.32-.65.53-.45.8-1.08.8-1.88 0-.8-.27-1.41-.8-1.85-.53-.44-1.3-.66-2.32-.66h-3.44l.72-.8v6.63Zm17.36 1.28-.08-1.96 6.35-6.54h1.83l-4.92 5.18-.9 1-2.28 2.32Zm-1.4 2.7v-11.2h1.6V197h-1.6Zm7.93 0-4.6-5.34 1.08-1.19 5.39 6.53h-1.87Z"/><defs><linearGradient id="a" x1="0" x2="213.53" y1="0" y2="278.01" gradientUnits="userSpaceOnUse"><stop stop-color="#FB6A39"/><stop offset="1" stop-color="#DF2A7E"/></linearGradient></defs></svg>